<svg width="48" height="48" viewBox="0 0 48 48" fill="none" xmlns="http://www.w3.org/2000/svg">
<path d="M23.6962 28.9686V32.5816C23.6976 32.917 23.6296 33.249 23.4967 33.5563C23.3637 33.8636 23.1688 34.1395 22.9242 34.3662C22.6797 34.593 22.3911 34.7656 22.0767 34.8731C21.7624 34.9805 21.4293 35.0204 21.0988 34.9902C17.4324 34.5875 13.9106 33.3212 10.8164 31.293C7.93755 29.4439 5.49682 26.9769 3.66751 24.067C1.65388 20.9252 0.400765 17.3481 0.00967087 13.6255C-0.0201035 13.2925 0.0190536 12.9569 0.124649 12.64C0.230244 12.3231 0.399964 12.0318 0.623003 11.7849C0.846042 11.5379 1.11751 11.3406 1.42013 11.2055C1.72275 11.0704 2.04989 11.0004 2.38071 11.0001H5.95514C6.53337 10.9944 7.09395 11.2013 7.53237 11.5824C7.9708 11.9636 8.25717 12.4928 8.3381 13.0716C8.48896 14.2278 8.76875 15.363 9.17213 16.4557C9.33243 16.8868 9.36713 17.3552 9.2721 17.8056C9.17708 18.256 8.95631 18.6694 8.63596 18.9968L7.12279 20.5263C8.81892 23.5414 11.2887 26.0378 14.2717 27.7522L15.7848 26.2228C16.1088 25.899 16.5178 25.6758 16.9633 25.5798C17.4089 25.4837 17.8724 25.5188 18.2988 25.6808C19.3798 26.0885 20.503 26.3713 21.6469 26.5238C22.2257 26.6064 22.7543 26.901 23.1321 27.3518C23.51 27.8026 23.7107 28.378 23.6962 28.9686Z" fill="url(#paint0_linear_2_484)"/>
<g filter="url(#filter0_bdii_2_484)">
<ellipse cx="24.2121" cy="20.913" rx="9.78788" ry="9.91304" fill="#8338EC" fill-opacity="0.15" shape-rendering="crispEdges"/>
</g>
<path d="M20.2502 24.2139C20.0562 24.4104 20.0582 24.727 20.2547 24.921C20.4512 25.115 20.7678 25.113 20.9618 24.9165L20.2502 24.2139ZM28.3181 17.2577C28.3164 16.9816 28.0911 16.7591 27.815 16.7609L23.3151 16.7895C23.0389 16.7912 22.8165 17.0165 22.8182 17.2926C22.82 17.5688 23.0453 17.7912 23.3214 17.7894L27.3213 17.764L27.3467 21.7639C27.3485 22.0401 27.5738 22.2625 27.8499 22.2608C28.126 22.259 28.3485 22.0337 28.3467 21.7576L28.3181 17.2577ZM20.9618 24.9165L28.1739 17.6122L27.4623 16.9096L20.2502 24.2139L20.9618 24.9165Z" fill="#8338EC"/>
<defs>
<filter id="filter0_bdii_2_484" x="0.424194" y="0" width="47.5757" height="47.8261" filterUnits="userSpaceOnUse" color-interpolation-filters="sRGB">
<feFlood flood-opacity="0" result="BackgroundImageFix"/>
<feGaussianBlur in="BackgroundImage" stdDeviation="3.5"/>
<feComposite in2="SourceAlpha" operator="in" result="effect1_backgroundBlur_2_484"/>
<feColorMatrix in="SourceAlpha" type="matrix" values="0 0 0 0 0 0 0 0 0 0 0 0 0 0 0 0 0 0 127 0" result="hardAlpha"/>
<feOffset dy="3"/>
<feGaussianBlur stdDeviation="7"/>
<feComposite in2="hardAlpha" operator="out"/>
<feColorMatrix type="matrix" values="0 0 0 0 0 0 0 0 0 0 0 0 0 0 0 0 0 0 0.07 0"/>
<feBlend mode="normal" in2="effect1_backgroundBlur_2_484" result="effect2_dropShadow_2_484"/>
<feBlend mode="normal" in="SourceGraphic" in2="effect2_dropShadow_2_484" result="shape"/>
<feColorMatrix in="SourceAlpha" type="matrix" values="0 0 0 0 0 0 0 0 0 0 0 0 0 0 0 0 0 0 127 0" result="hardAlpha"/>
<feOffset dx="-0.3" dy="-0.3"/>
<feGaussianBlur stdDeviation="0.15"/>
<feComposite in2="hardAlpha" operator="arithmetic" k2="-1" k3="1"/>
<feColorMatrix type="matrix" values="0 0 0 0 0.513726 0 0 0 0 0.219608 0 0 0 0 0.92549 0 0 0 0.15 0"/>
<feBlend mode="normal" in2="shape" result="effect3_innerShadow_2_484"/>
<feColorMatrix in="SourceAlpha" type="matrix" values="0 0 0 0 0 0 0 0 0 0 0 0 0 0 0 0 0 0 127 0" result="hardAlpha"/>
<feOffset dx="0.3" dy="0.3"/>
<feGaussianBlur stdDeviation="0.15"/>
<feComposite in2="hardAlpha" operator="arithmetic" k2="-1" k3="1"/>
<feColorMatrix type="matrix" values="0 0 0 0 1 0 0 0 0 1 0 0 0 0 1 0 0 0 0.65 0"/>
<feBlend mode="normal" in2="effect3_innerShadow_2_484" result="effect4_innerShadow_2_484"/>
</filter>
<linearGradient id="paint0_linear_2_484" x1="2.60466" y1="12.2772" x2="22.1844" y2="34.4862" gradientUnits="userSpaceOnUse">
<stop offset="0.393651" stop-color="#FFCA46"/>
<stop offset="1" stop-color="#FF9B06"/>
</linearGradient>
</defs>
</svg>
