<svg width="132" height="140" viewBox="0 0 132 140" fill="none" xmlns="http://www.w3.org/2000/svg">
<path d="M54.384 13.4813V6.99434L52.9311 7.87892V6.62978L54.384 5.76128H55.5259V13.4813H54.384ZM57.3474 13.4759L57.3527 12.4788L60.7141 9.46581C60.9858 9.22635 61.1698 8.99761 61.2663 8.77959C61.3664 8.56157 61.4165 8.34355 61.4165 8.12553C61.4165 7.85033 61.3557 7.60372 61.2342 7.3857C61.1127 7.16411 60.9447 6.98898 60.7302 6.86031C60.5158 6.73164 60.2692 6.66731 59.9904 6.66731C59.7045 6.66731 59.4489 6.73522 59.2238 6.87103C59.0022 7.00327 58.8288 7.18019 58.7037 7.40178C58.5786 7.62338 58.5179 7.86284 58.5214 8.12017H57.3742C57.3742 7.6198 57.4868 7.18198 57.7119 6.8067C57.9407 6.42785 58.2534 6.13298 58.6501 5.92211C59.0468 5.70767 59.5007 5.60045 60.0118 5.60045C60.4979 5.60045 60.934 5.71124 61.32 5.93284C61.706 6.15086 62.0097 6.45108 62.2313 6.8335C62.4565 7.21593 62.5691 7.65197 62.5691 8.14162C62.5691 8.49545 62.5226 8.79567 62.4297 9.04229C62.3368 9.2889 62.1974 9.51764 62.0115 9.72851C61.8257 9.93938 61.5934 10.1681 61.3146 10.4147L58.7198 12.7307L58.5965 12.4091H62.5691V13.4759H57.3474ZM65.49 13.6421C65.0611 13.6421 64.7019 13.5635 64.4124 13.4062C64.1229 13.2454 63.9031 13.0345 63.753 12.7736C63.6064 12.5091 63.5332 12.2196 63.5332 11.9051C63.5332 11.612 63.585 11.3547 63.6886 11.1331C63.7923 10.9115 63.946 10.7239 64.1497 10.5702C64.3534 10.4129 64.6036 10.2861 64.9003 10.1896C65.1576 10.1145 65.4489 10.0484 65.7741 9.9912C66.0994 9.93402 66.4407 9.88041 66.7981 9.83037C67.1591 9.78033 67.5165 9.7303 67.8703 9.68026L67.4629 9.90543C67.47 9.45152 67.3735 9.11555 67.1734 8.89754C66.9768 8.67594 66.6373 8.56515 66.1548 8.56515C65.851 8.56515 65.5722 8.63663 65.3184 8.77959C65.0647 8.91898 64.8877 9.1513 64.7877 9.47654L63.7423 9.15487C63.8852 8.65807 64.1568 8.26314 64.5571 7.97006C64.961 7.67699 65.4971 7.53045 66.1655 7.53045C66.6837 7.53045 67.1341 7.6198 67.5165 7.79851C67.9025 7.97364 68.1848 8.25241 68.3635 8.63484C68.4565 8.82427 68.5137 9.02442 68.5351 9.23529C68.5565 9.44616 68.5673 9.67311 68.5673 9.91615V13.4813H67.5755V12.1571L67.7685 12.3287C67.529 12.7718 67.2234 13.1024 66.8517 13.3205C66.4836 13.5349 66.0297 13.6421 65.49 13.6421ZM65.6883 12.7254C66.0064 12.7254 66.2799 12.67 66.5086 12.5592C66.7373 12.4448 66.9214 12.3001 67.0608 12.1249C67.2002 11.9498 67.2913 11.7675 67.3342 11.5781C67.395 11.4065 67.4289 11.2135 67.4361 10.9991C67.4468 10.7846 67.4522 10.6131 67.4522 10.4844L67.8167 10.6185C67.4629 10.6721 67.1412 10.7203 66.8517 10.7632C66.5622 10.8061 66.2995 10.849 66.0636 10.8919C65.8313 10.9312 65.624 10.9794 65.4417 11.0366C65.288 11.0902 65.1504 11.1546 65.0289 11.2296C64.911 11.3047 64.8163 11.3958 64.7448 11.503C64.6769 11.6103 64.6429 11.7407 64.6429 11.8944C64.6429 12.0445 64.6805 12.1839 64.7555 12.3126C64.8306 12.4377 64.9449 12.5377 65.0986 12.6128C65.2523 12.6878 65.4489 12.7254 65.6883 12.7254ZM76.8967 13.4813L76.902 9.87326C76.902 9.45509 76.7948 9.12985 76.5804 8.89754C76.3659 8.66165 76.0836 8.5437 75.7333 8.5437C75.5189 8.5437 75.3223 8.59374 75.1436 8.69381C74.9685 8.79031 74.8255 8.93685 74.7147 9.13342C74.6075 9.32643 74.5539 9.56946 74.5539 9.86254L74.0124 9.58912C74.0053 9.18167 74.091 8.82427 74.2697 8.5169C74.452 8.20953 74.6986 7.97185 75.0096 7.80387C75.3205 7.63231 75.669 7.54653 76.055 7.54653C76.6805 7.54653 77.1647 7.73417 77.5079 8.10945C77.851 8.48473 78.0225 8.98331 78.0225 9.6052L78.0172 13.4813H76.8967ZM69.954 13.4813V7.69128H70.9512V9.36395H71.0799V13.4813H69.954ZM73.428 13.4813L73.4334 9.8947C73.4334 9.47296 73.3262 9.14236 73.1117 8.9029C72.9009 8.66343 72.6167 8.5437 72.2593 8.5437C71.9055 8.5437 71.6196 8.66522 71.4015 8.90826C71.1871 9.1513 71.0799 9.46939 71.0799 9.86254L70.5438 9.51943C70.5438 9.14057 70.6349 8.80282 70.8172 8.50617C70.9995 8.20953 71.2461 7.97542 71.557 7.80387C71.868 7.63231 72.22 7.54653 72.6132 7.54653C73.0242 7.54653 73.3744 7.6341 73.6639 7.80923C73.9534 7.98078 74.1732 8.22203 74.3233 8.53298C74.477 8.84392 74.5539 9.20491 74.5539 9.61593L74.5485 13.4813H73.428Z" fill="#939295"/>
<path d="M54.5944 134.961V128.474L53.1416 129.359V128.11L54.5944 127.241H55.7364V134.961H54.5944ZM57.5578 134.956L57.5632 133.959L60.9246 130.946C61.1962 130.706 61.3803 130.478 61.4768 130.26C61.5768 130.041 61.6269 129.823 61.6269 129.605C61.6269 129.33 61.5661 129.084 61.4446 128.866C61.3231 128.644 61.1551 128.469 60.9407 128.34C60.7262 128.212 60.4796 128.147 60.2008 128.147C59.9149 128.147 59.6593 128.215 59.4342 128.351C59.2126 128.483 59.0392 128.66 58.9142 128.882C58.7891 129.103 58.7283 129.343 58.7319 129.6H57.5846C57.5846 129.1 57.6972 128.662 57.9223 128.287C58.1511 127.908 58.4638 127.613 58.8605 127.402C59.2573 127.188 59.7112 127.08 60.2223 127.08C60.7083 127.08 61.1444 127.191 61.5304 127.413C61.9164 127.631 62.2202 127.931 62.4418 128.313C62.6669 128.696 62.7795 129.132 62.7795 129.622C62.7795 129.975 62.7331 130.276 62.6401 130.522C62.5472 130.769 62.4078 130.998 62.222 131.208C62.0361 131.419 61.8038 131.648 61.525 131.895L58.9302 134.211L58.8069 133.889H62.7795V134.956H57.5578ZM66.7834 135.122C66.2294 135.122 65.7647 134.988 65.3895 134.72C65.0142 134.448 64.73 134.082 64.537 133.621C64.344 133.16 64.2475 132.64 64.2475 132.061C64.2475 131.482 64.3423 130.962 64.5317 130.501C64.7247 130.04 65.007 129.677 65.3787 129.412C65.754 129.144 66.2151 129.01 66.7619 129.01C67.3052 129.01 67.7734 129.144 68.1665 129.412C68.5632 129.677 68.8688 130.04 69.0833 130.501C69.2977 130.958 69.4049 131.478 69.4049 132.061C69.4049 132.64 69.2977 133.162 69.0833 133.626C68.8724 134.087 68.5704 134.452 68.1772 134.72C67.7877 134.988 67.323 135.122 66.7834 135.122ZM64.0599 137.535V129.171H65.0571V133.337H65.1857V137.535H64.0599ZM66.6279 134.109C66.9853 134.109 67.2802 134.018 67.5125 133.835C67.7484 133.653 67.9235 133.408 68.0379 133.101C68.1558 132.79 68.2148 132.443 68.2148 132.061C68.2148 131.682 68.1558 131.339 68.0379 131.032C67.9235 130.724 67.7466 130.479 67.5071 130.297C67.2676 130.115 66.9621 130.024 66.5904 130.024C66.2401 130.024 65.9506 130.109 65.7219 130.281C65.4967 130.453 65.3287 130.692 65.2179 130.999C65.1107 131.307 65.0571 131.661 65.0571 132.061C65.0571 132.461 65.1107 132.815 65.2179 133.122C65.3251 133.43 65.4949 133.671 65.7272 133.846C65.9595 134.021 66.2598 134.109 66.6279 134.109ZM77.5259 134.961L77.5313 131.353C77.5313 130.935 77.4241 130.61 77.2096 130.377C76.9952 130.142 76.7128 130.024 76.3626 130.024C76.1481 130.024 75.9516 130.074 75.7729 130.174C75.5977 130.27 75.4548 130.417 75.344 130.613C75.2368 130.806 75.1831 131.049 75.1831 131.342L74.6417 131.069C74.6345 130.662 74.7203 130.304 74.899 129.997C75.0813 129.689 75.3279 129.452 75.6388 129.284C75.9498 129.112 76.2983 129.026 76.6843 129.026C77.3097 129.026 77.794 129.214 78.1371 129.589C78.4802 129.965 78.6518 130.463 78.6518 131.085L78.6464 134.961H77.5259ZM70.5833 134.961V129.171H71.5805V130.844H71.7091V134.961H70.5833ZM74.0573 134.961L74.0627 131.375C74.0627 130.953 73.9554 130.622 73.741 130.383C73.5301 130.143 73.246 130.024 72.8886 130.024C72.5347 130.024 72.2488 130.145 72.0308 130.388C71.8164 130.631 71.7091 130.949 71.7091 131.342L71.173 130.999C71.173 130.62 71.2642 130.283 71.4464 129.986C71.6287 129.689 71.8753 129.455 72.1863 129.284C72.4972 129.112 72.8493 129.026 73.2424 129.026C73.6534 129.026 74.0037 129.114 74.2932 129.289C74.5827 129.461 74.8025 129.702 74.9526 130.013C75.1063 130.324 75.1831 130.685 75.1831 131.096L75.1778 134.961H74.0573Z" fill="#939295"/>
<path d="M112.353 72.5407C111.853 72.5407 111.403 72.4227 111.002 72.1869C110.602 71.9474 110.284 71.6204 110.048 71.2058C109.816 70.7912 109.7 70.3194 109.7 69.7904V67.3297C109.7 66.7685 109.816 66.2753 110.048 65.85C110.284 65.4247 110.609 65.0941 111.024 64.8582C111.442 64.6223 111.923 64.5044 112.466 64.5044C112.873 64.5044 113.256 64.5812 113.613 64.7349C113.971 64.8886 114.28 65.1173 114.541 65.4211L113.72 66.1878C113.574 65.9983 113.39 65.8482 113.168 65.7374C112.95 65.6231 112.716 65.5659 112.466 65.5659C112.144 65.5659 111.862 65.6427 111.619 65.7964C111.376 65.9465 111.185 66.1449 111.045 66.3915C110.909 66.6381 110.842 66.9026 110.842 67.1849V68.6003L110.622 68.3537C110.843 68.0642 111.119 67.8354 111.447 67.6674C111.776 67.4994 112.128 67.4155 112.504 67.4155C112.982 67.4155 113.41 67.528 113.785 67.7532C114.164 67.9748 114.46 68.2768 114.675 68.6592C114.893 69.0417 115.002 69.4723 115.002 69.9513C115.002 70.4338 114.88 70.8716 114.637 71.2647C114.398 71.6543 114.076 71.9653 113.672 72.1976C113.272 72.4263 112.832 72.5407 112.353 72.5407ZM112.353 71.4631C112.632 71.4631 112.886 71.3952 113.115 71.2594C113.343 71.1236 113.526 70.9413 113.662 70.7125C113.797 70.4838 113.865 70.23 113.865 69.9513C113.865 69.6725 113.797 69.4187 113.662 69.19C113.529 68.9612 113.349 68.779 113.12 68.6432C112.891 68.5073 112.638 68.4394 112.359 68.4394C112.08 68.4394 111.824 68.5073 111.592 68.6432C111.363 68.779 111.181 68.9612 111.045 69.19C110.909 69.4187 110.842 69.6725 110.842 69.9513C110.842 70.2265 110.909 70.4784 111.045 70.7072C111.181 70.9359 111.363 71.12 111.592 71.2594C111.821 71.3952 112.075 71.4631 112.353 71.4631ZM117.994 72.5407C117.565 72.5407 117.206 72.4621 116.917 72.3048C116.627 72.144 116.407 71.9331 116.257 71.6722C116.111 71.4077 116.037 71.1182 116.037 70.8037C116.037 70.5106 116.089 70.2533 116.193 70.0317C116.297 69.8101 116.45 69.6224 116.654 69.4688C116.858 69.3115 117.108 69.1846 117.405 69.0881C117.662 69.0131 117.953 68.9469 118.278 68.8898C118.604 68.8326 118.945 68.779 119.302 68.7289C119.663 68.6789 120.021 68.6289 120.375 68.5788L119.967 68.804C119.974 68.3501 119.878 68.0141 119.678 67.7961C119.481 67.5745 119.142 67.4637 118.659 67.4637C118.355 67.4637 118.077 67.5352 117.823 67.6782C117.569 67.8175 117.392 68.0499 117.292 68.3751L116.247 68.0534C116.39 67.5566 116.661 67.1617 117.061 66.8686C117.465 66.5755 118.001 66.429 118.67 66.429C119.188 66.429 119.638 66.5184 120.021 66.6971C120.407 66.8722 120.689 67.151 120.868 67.5334C120.961 67.7228 121.018 67.923 121.039 68.1338C121.061 68.3447 121.072 68.5717 121.072 68.8147V72.3799H120.08V71.0557L120.273 71.2272C120.033 71.6704 119.728 72.001 119.356 72.219C118.988 72.4335 118.534 72.5407 117.994 72.5407ZM118.193 71.6239C118.511 71.6239 118.784 71.5685 119.013 71.4577C119.242 71.3434 119.426 71.1986 119.565 71.0235C119.705 70.8484 119.796 70.6661 119.839 70.4767C119.899 70.3051 119.933 70.1121 119.94 69.8977C119.951 69.6832 119.956 69.5117 119.956 69.383L120.321 69.517C119.967 69.5706 119.646 69.6189 119.356 69.6618C119.067 69.7047 118.804 69.7475 118.568 69.7904C118.336 69.8297 118.128 69.878 117.946 69.9352C117.792 69.9888 117.655 70.0531 117.533 70.1282C117.415 70.2032 117.321 70.2944 117.249 70.4016C117.181 70.5088 117.147 70.6393 117.147 70.793C117.147 70.9431 117.185 71.0825 117.26 71.2111C117.335 71.3362 117.449 71.4363 117.603 71.5114C117.757 71.5864 117.953 71.6239 118.193 71.6239ZM129.401 72.3799L129.406 68.7718C129.406 68.3537 129.299 68.0284 129.085 67.7961C128.87 67.5602 128.588 67.4423 128.238 67.4423C128.023 67.4423 127.827 67.4923 127.648 67.5924C127.473 67.6889 127.33 67.8354 127.219 68.032C127.112 68.225 127.058 68.468 127.058 68.7611L126.517 68.4877C126.51 68.0802 126.595 67.7228 126.774 67.4155C126.956 67.1081 127.203 66.8704 127.514 66.7024C127.825 66.5309 128.173 66.4451 128.559 66.4451C129.185 66.4451 129.669 66.6327 130.012 67.008C130.355 67.3833 130.527 67.8819 130.527 68.5038L130.521 72.3799H129.401ZM122.458 72.3799V66.5898H123.456V68.2625H123.584V72.3799H122.458ZM125.932 72.3799L125.938 68.7933C125.938 68.3715 125.831 68.0409 125.616 67.8015C125.405 67.562 125.121 67.4423 124.764 67.4423C124.41 67.4423 124.124 67.5638 123.906 67.8068C123.691 68.0499 123.584 68.3679 123.584 68.7611L123.048 68.418C123.048 68.0391 123.139 67.7014 123.322 67.4047C123.504 67.1081 123.75 66.874 124.061 66.7024C124.372 66.5309 124.724 66.4451 125.117 66.4451C125.528 66.4451 125.879 66.5327 126.168 66.7078C126.458 66.8793 126.678 67.1206 126.828 67.4315C126.981 67.7425 127.058 68.1035 127.058 68.5145L127.053 72.3799H125.932Z" fill="#939295"/>
<path d="M95.9726 20.4487L95.977 19.634L98.7233 17.1725C98.9452 16.9768 99.0956 16.7899 99.1744 16.6118C99.2562 16.4337 99.2971 16.2556 99.2971 16.0775C99.2971 15.8526 99.2474 15.6511 99.1481 15.473C99.0489 15.292 98.9116 15.1489 98.7364 15.0438C98.5612 14.9387 98.3597 14.8861 98.132 14.8861C97.8984 14.8861 97.6896 14.9416 97.5056 15.0525C97.3246 15.1606 97.183 15.3051 97.0808 15.4862C96.9786 15.6672 96.9289 15.8628 96.9319 16.0731H95.9945C95.9945 15.6643 96.0865 15.3066 96.2705 15C96.4574 14.6905 96.7129 14.4496 97.037 14.2773C97.3611 14.1021 97.7319 14.0145 98.1495 14.0145C98.5466 14.0145 98.9029 14.105 99.2182 14.286C99.5336 14.4642 99.7818 14.7094 99.9628 15.0219C100.147 15.3343 100.239 15.6906 100.239 16.0906C100.239 16.3797 100.201 16.625 100.125 16.8264C100.049 17.0279 99.9351 17.2148 99.7832 17.3871C99.6314 17.5594 99.4416 17.7462 99.2138 17.9477L97.0939 19.8399L96.9932 19.5771H100.239V20.4487H95.9726Z" fill="#939295"/>
<path d="M31.8695 127.148L31.8739 126.333L34.6202 123.872C34.8421 123.676 34.9925 123.489 35.0713 123.311C35.1531 123.133 35.1939 122.955 35.1939 122.777C35.1939 122.552 35.1443 122.35 35.045 122.172C34.9457 121.991 34.8085 121.848 34.6333 121.743C34.4581 121.638 34.2566 121.585 34.0289 121.585C33.7953 121.585 33.5865 121.641 33.4025 121.752C33.2215 121.86 33.0799 122.004 32.9777 122.185C32.8755 122.366 32.8258 122.562 32.8287 122.772H31.8914C31.8914 122.363 31.9834 122.006 32.1674 121.699C32.3542 121.39 32.6097 121.149 32.9339 120.976C33.258 120.801 33.6288 120.714 34.0464 120.714C34.4435 120.714 34.7997 120.804 35.1151 120.985C35.4305 121.163 35.6787 121.409 35.8597 121.721C36.0437 122.033 36.1356 122.39 36.1356 122.79C36.1356 123.079 36.0977 123.324 36.0218 123.526C35.9458 123.727 35.832 123.914 35.6801 124.086C35.5283 124.259 35.3385 124.445 35.1107 124.647L32.9908 126.539L32.8901 126.276H36.1356V127.148H31.8695Z" fill="#939295"/>
<path d="M120.995 42.7635V41.6641H118.148V40.7969L120.198 36.4563H121.245L119.195 40.7969H120.995V39.0887H121.924V40.7969H122.55V41.6641H121.924V42.7635H120.995Z" fill="#939295"/>
<path d="M13.1772 104.842V103.742H10.3302V102.875L12.3801 98.5346H13.4269L11.377 102.875H13.1772V101.167H14.1058V102.875H14.7321V103.742H14.1058V104.842H13.1772Z" fill="#939295"/>
<path d="M120.351 105.215C119.939 105.215 119.574 105.133 119.256 104.97C118.941 104.804 118.692 104.573 118.511 104.278C118.333 103.983 118.244 103.641 118.244 103.253C118.244 102.891 118.329 102.56 118.498 102.259C118.668 101.958 118.92 101.721 119.256 101.549L119.239 101.865C118.97 101.698 118.763 101.491 118.617 101.243C118.473 100.991 118.402 100.711 118.402 100.402C118.402 100.042 118.485 99.7315 118.652 99.4687C118.818 99.2059 119.047 99.003 119.339 98.8599C119.634 98.7168 119.971 98.6453 120.351 98.6453C120.731 98.6453 121.066 98.7168 121.358 98.8599C121.65 99.003 121.88 99.2059 122.046 99.4687C122.213 99.7315 122.296 100.042 122.296 100.402C122.296 100.711 122.227 100.99 122.09 101.238C121.953 101.486 121.742 101.695 121.459 101.865L121.446 101.558C121.779 101.721 122.032 101.955 122.204 102.259C122.376 102.56 122.462 102.891 122.462 103.253C122.462 103.641 122.372 103.983 122.191 104.278C122.01 104.573 121.76 104.804 121.442 104.97C121.123 105.133 120.76 105.215 120.351 105.215ZM120.351 104.344C120.69 104.344 120.964 104.252 121.174 104.068C121.385 103.881 121.49 103.609 121.49 103.253C121.49 102.897 121.385 102.625 121.174 102.438C120.967 102.249 120.693 102.154 120.351 102.154C120.009 102.154 119.733 102.249 119.523 102.438C119.316 102.625 119.212 102.897 119.212 103.253C119.212 103.609 119.317 103.881 119.528 104.068C119.738 104.252 120.012 104.344 120.351 104.344ZM120.351 101.278C120.64 101.278 120.874 101.206 121.052 101.063C121.233 100.917 121.323 100.697 121.323 100.402C121.323 100.107 121.233 99.8863 121.052 99.7403C120.874 99.5913 120.64 99.5169 120.351 99.5169C120.062 99.5169 119.827 99.5913 119.646 99.7403C119.465 99.8863 119.374 100.107 119.374 100.402C119.374 100.697 119.465 100.917 119.646 101.063C119.827 101.206 120.062 101.278 120.351 101.278Z" fill="#939295"/>
<path d="M12.5246 42.6509C12.1129 42.6509 11.7479 42.5691 11.4296 42.4056C11.1142 42.2392 10.866 42.0085 10.685 41.7136C10.5069 41.4187 10.4178 41.077 10.4178 40.6887C10.4178 40.3266 10.5025 39.9952 10.6719 39.6944C10.8412 39.3936 11.0938 39.1571 11.4296 38.9848L11.4121 39.3002C11.1434 39.1338 10.9361 38.9264 10.7901 38.6782C10.647 38.4271 10.5755 38.1468 10.5755 37.8373C10.5755 37.4781 10.6587 37.1671 10.8252 36.9043C10.9916 36.6415 11.2208 36.4386 11.5128 36.2955C11.8077 36.1524 12.145 36.0809 12.5246 36.0809C12.9042 36.0809 13.24 36.1524 13.532 36.2955C13.824 36.4386 14.0532 36.6415 14.2197 36.9043C14.3861 37.1671 14.4693 37.4781 14.4693 37.8373C14.4693 38.1468 14.4007 38.4257 14.2635 38.6739C14.1262 38.9221 13.916 39.1308 13.6327 39.3002L13.6196 38.9936C13.9525 39.1571 14.2051 39.3907 14.3773 39.6944C14.5496 39.9952 14.6358 40.3266 14.6358 40.6887C14.6358 41.077 14.5452 41.4187 14.3642 41.7136C14.1832 42.0085 13.9335 42.2392 13.6152 42.4056C13.2969 42.5691 12.9334 42.6509 12.5246 42.6509ZM12.5246 41.7793C12.8633 41.7793 13.1378 41.6873 13.348 41.5033C13.5583 41.3165 13.6634 41.0449 13.6634 40.6887C13.6634 40.3324 13.5583 40.0609 13.348 39.874C13.1407 39.6842 12.8662 39.5893 12.5246 39.5893C12.183 39.5893 11.907 39.6842 11.6968 39.874C11.4895 40.0609 11.3858 40.3324 11.3858 40.6887C11.3858 41.0449 11.4909 41.3165 11.7012 41.5033C11.9114 41.6873 12.1859 41.7793 12.5246 41.7793ZM12.5246 38.7133C12.8137 38.7133 13.0473 38.6417 13.2254 38.4987C13.4064 38.3527 13.497 38.1322 13.497 37.8373C13.497 37.5424 13.4064 37.3219 13.2254 37.1759C13.0473 37.027 12.8137 36.9525 12.5246 36.9525C12.2355 36.9525 12.0005 37.027 11.8194 37.1759C11.6384 37.3219 11.5479 37.5424 11.5479 37.8373C11.5479 38.1322 11.6384 38.3527 11.8194 38.4987C12.0005 38.6417 12.2355 38.7133 12.5246 38.7133Z" fill="#939295"/>
<path d="M95.3811 127.396V122.096L94.1942 122.819V121.799L95.3811 121.089H96.3141V127.396H95.3811ZM100.176 127.528C99.7469 127.528 99.3673 127.434 99.0373 127.247C98.7074 127.057 98.4475 126.798 98.2577 126.468C98.0708 126.138 97.9774 125.758 97.9774 125.329V123.156C97.9774 122.727 98.0708 122.348 98.2577 122.018C98.4475 121.688 98.7074 121.429 99.0373 121.242C99.3673 121.053 99.7469 120.958 100.176 120.958C100.605 120.958 100.985 121.053 101.315 121.242C101.645 121.429 101.903 121.688 102.09 122.018C102.28 122.348 102.375 122.727 102.375 123.156V125.329C102.375 125.758 102.28 126.138 102.09 126.468C101.903 126.798 101.645 127.057 101.315 127.247C100.985 127.434 100.605 127.528 100.176 127.528ZM100.176 126.652C100.41 126.652 100.621 126.596 100.811 126.485C101.004 126.371 101.157 126.219 101.271 126.03C101.385 125.837 101.442 125.622 101.442 125.386V123.091C101.442 122.857 101.385 122.645 101.271 122.456C101.157 122.263 101.004 122.111 100.811 122C100.621 121.886 100.41 121.829 100.176 121.829C99.9425 121.829 99.7294 121.886 99.5367 122C99.3469 122.111 99.195 122.263 99.0811 122.456C98.9673 122.645 98.9103 122.857 98.9103 123.091V125.386C98.9103 125.622 98.9673 125.837 99.0811 126.03C99.195 126.219 99.3469 126.371 99.5367 126.485C99.7294 126.596 99.9425 126.652 100.176 126.652Z" fill="#939295"/>
<path d="M32.377 20.2091V14.9093L31.19 15.632V14.6115L32.377 13.9019H33.3099V20.2091H32.377ZM37.172 20.3405C36.7427 20.3405 36.3631 20.2471 36.0332 20.0602C35.7032 19.8704 35.4433 19.6105 35.2535 19.2805C35.0666 18.9506 34.9732 18.571 34.9732 18.1417V15.9693C34.9732 15.54 35.0666 15.1604 35.2535 14.8305C35.4433 14.5005 35.7032 14.2421 36.0332 14.0552C36.3631 13.8654 36.7427 13.7705 37.172 13.7705C37.6012 13.7705 37.9808 13.8654 38.3108 14.0552C38.6407 14.2421 38.8991 14.5005 39.086 14.8305C39.2758 15.1604 39.3707 15.54 39.3707 15.9693V18.1417C39.3707 18.571 39.2758 18.9506 39.086 19.2805C38.8991 19.6105 38.6407 19.8704 38.3108 20.0602C37.9808 20.2471 37.6012 20.3405 37.172 20.3405ZM37.172 19.4645C37.4056 19.4645 37.6173 19.409 37.8071 19.2981C37.9998 19.1842 38.1531 19.0323 38.267 18.8425C38.3808 18.6498 38.4378 18.4352 38.4378 18.1987V15.9036C38.4378 15.67 38.3808 15.4583 38.267 15.2685C38.1531 15.0757 37.9998 14.9239 37.8071 14.8129C37.6173 14.6991 37.4056 14.6421 37.172 14.6421C36.9384 14.6421 36.7252 14.6991 36.5325 14.8129C36.3427 14.9239 36.1908 15.0757 36.077 15.2685C35.9631 15.4583 35.9061 15.67 35.9061 15.9036V18.1987C35.9061 18.4352 35.9631 18.6498 36.077 18.8425C36.1908 19.0323 36.3427 19.1842 36.5325 19.2981C36.7252 19.409 36.9384 19.4645 37.172 19.4645Z" fill="#939295"/>
<path d="M3.40391 72.699C2.90354 72.699 2.4532 72.5811 2.0529 72.3452C1.65261 72.1057 1.33451 71.7787 1.09863 71.3641C0.86631 70.9495 0.750152 70.4777 0.750152 69.9488V67.488C0.750152 66.9269 0.86631 66.4336 1.09863 66.0083C1.33451 65.583 1.65976 65.2524 2.07435 65.0165C2.49252 64.7806 2.97323 64.6627 3.51649 64.6627C3.92394 64.6627 4.30636 64.7395 4.66377 64.8932C5.02118 65.0469 5.33034 65.2756 5.59124 65.5794L4.77099 66.3461C4.62445 66.1567 4.44039 66.0065 4.2188 65.8958C4.00078 65.7814 3.76668 65.7242 3.51649 65.7242C3.19482 65.7242 2.91247 65.801 2.66943 65.9547C2.4264 66.1048 2.23518 66.3032 2.09579 66.5498C1.95998 66.7964 1.89207 67.0609 1.89207 67.3433V68.7586L1.67226 68.512C1.89386 68.2225 2.16906 67.9937 2.49788 67.8258C2.82669 67.6578 3.17874 67.5738 3.55402 67.5738C4.03294 67.5738 4.46005 67.6864 4.83533 67.9115C5.21418 68.1331 5.51083 68.4351 5.72527 68.8176C5.94329 69.2 6.0523 69.6307 6.0523 70.1096C6.0523 70.5921 5.93078 71.0299 5.68774 71.4231C5.44828 71.8126 5.12661 72.1236 4.72274 72.3559C4.32245 72.5846 3.88283 72.699 3.40391 72.699ZM3.40391 71.6214C3.68268 71.6214 3.93644 71.5535 4.16519 71.4177C4.39393 71.2819 4.5762 71.0996 4.71202 70.8709C4.84783 70.6421 4.91574 70.3884 4.91574 70.1096C4.91574 69.8308 4.84783 69.5771 4.71202 69.3483C4.57978 69.1196 4.39929 68.9373 4.17055 68.8015C3.94181 68.6657 3.68805 68.5978 3.40927 68.5978C3.13049 68.5978 2.87494 68.6657 2.64263 68.8015C2.41389 68.9373 2.23161 69.1196 2.09579 69.3483C1.95998 69.5771 1.89207 69.8308 1.89207 70.1096C1.89207 70.3848 1.95998 70.6368 2.09579 70.8655C2.23161 71.0942 2.41389 71.2783 2.64263 71.4177C2.87137 71.5535 3.12513 71.6214 3.40391 71.6214ZM10.1278 72.699C9.57377 72.699 9.10914 72.565 8.73386 72.2969C8.35859 72.0253 8.07445 71.659 7.88145 71.1979C7.68845 70.7368 7.59195 70.2168 7.59195 69.6378C7.59195 69.0588 7.68666 68.5388 7.87609 68.0777C8.06909 67.6167 8.35144 67.2539 8.72314 66.9894C9.09842 66.7214 9.55948 66.5873 10.1063 66.5873C10.6496 66.5873 11.1178 66.7214 11.5109 66.9894C11.9076 67.2539 12.2132 67.6167 12.4277 68.0777C12.6421 68.5352 12.7493 69.0552 12.7493 69.6378C12.7493 70.2168 12.6421 70.7386 12.4277 71.2033C12.2168 71.6643 11.9148 72.0289 11.5216 72.2969C11.1321 72.565 10.6674 72.699 10.1278 72.699ZM7.40431 75.1115V66.7482H8.40147V70.9138H8.53014V75.1115H7.40431ZM9.97228 71.6858C10.3297 71.6858 10.6246 71.5946 10.8569 71.4123C11.0928 71.2301 11.2679 70.9852 11.3823 70.6779C11.5002 70.3669 11.5592 70.0202 11.5592 69.6378C11.5592 69.259 11.5002 68.9158 11.3823 68.6085C11.2679 68.3011 11.091 68.0563 10.8515 67.874C10.612 67.6917 10.3065 67.6006 9.93475 67.6006C9.5845 67.6006 9.29499 67.6864 9.06625 67.8579C8.84109 68.0295 8.6731 68.2689 8.56231 68.5763C8.45509 68.8837 8.40147 69.2375 8.40147 69.6378C8.40147 70.0381 8.45509 70.3919 8.56231 70.6993C8.66953 71.0067 8.8393 71.2479 9.07161 71.4231C9.30393 71.5982 9.60415 71.6858 9.97228 71.6858ZM20.8703 72.5382L20.8757 68.9301C20.8757 68.512 20.7685 68.1867 20.554 67.9544C20.3396 67.7185 20.0572 67.6006 19.707 67.6006C19.4925 67.6006 19.296 67.6506 19.1173 67.7507C18.9421 67.8472 18.7992 67.9937 18.6884 68.1903C18.5812 68.3833 18.5275 68.6263 18.5275 68.9194L17.9861 68.646C17.9789 68.2386 18.0647 67.8812 18.2434 67.5738C18.4257 67.2664 18.6723 67.0287 18.9832 66.8608C19.2942 66.6892 19.6427 66.6034 20.0287 66.6034C20.6541 66.6034 21.1384 66.7911 21.4815 67.1663C21.8246 67.5416 21.9962 68.0402 21.9962 68.6621L21.9908 72.5382H20.8703ZM13.9277 72.5382V66.7482H14.9249V68.4208H15.0535V72.5382H13.9277ZM17.4017 72.5382L17.4071 68.9516C17.4071 68.5298 17.2998 68.1992 17.0854 67.9598C16.8745 67.7203 16.5904 67.6006 16.233 67.6006C15.8791 67.6006 15.5932 67.7221 15.3752 67.9651C15.1608 68.2082 15.0535 68.5263 15.0535 68.9194L14.5174 68.5763C14.5174 68.1975 14.6086 67.8597 14.7908 67.5631C14.9731 67.2664 15.2197 67.0323 15.5307 66.8608C15.8416 66.6892 16.1937 66.6034 16.5868 66.6034C16.9978 66.6034 17.3481 66.691 17.6376 66.8661C17.9271 67.0377 18.1469 67.2789 18.297 67.5899C18.4507 67.9008 18.5275 68.2618 18.5275 68.6728L18.5222 72.5382H17.4017Z" fill="#939295"/>
</svg>
