<svg width="158" height="157" viewBox="0 0 158 157" fill="none" xmlns="http://www.w3.org/2000/svg">
<line x1="72.828" y1="0.627233" x2="73.3649" y2="6.76379" stroke="#E9E9E9" stroke-width="1.314"/>
<line x1="85.9423" y1="150.535" x2="86.4792" y2="156.672" stroke="#E9E9E9" stroke-width="1.314"/>
<line x1="66.0456" y1="1.46118" x2="67.1153" y2="7.5276" stroke="#E9E9E9" stroke-width="1.314"/>
<line x1="92.1781" y1="149.654" x2="93.2477" y2="155.721" stroke="#E9E9E9" stroke-width="1.314"/>
<line x1="59.3622" y1="2.8846" x2="60.9566" y2="8.8347" stroke="#E9E9E9" stroke-width="1.314"/>
<line x1="98.3088" y1="148.237" x2="99.9031" y2="154.187" stroke="#E9E9E9" stroke-width="1.314"/>
<line x1="52.831" y1="4.88419" x2="54.9379" y2="10.6727" stroke="#E9E9E9" stroke-width="1.314"/>
<line x1="104.297" y1="146.289" x2="106.404" y2="152.077" stroke="#E9E9E9" stroke-width="1.314"/>
<line x1="46.4952" y1="7.44469" x2="49.0986" y2="13.0275" stroke="#E9E9E9" stroke-width="1.314"/>
<line x1="110.091" y1="143.826" x2="112.694" y2="149.409" stroke="#E9E9E9" stroke-width="1.314"/>
<line x1="34.6147" y1="14.1715" x2="38.1479" y2="19.2174" stroke="#E9E9E9" stroke-width="1.314"/>
<line x1="120.927" y1="137.435" x2="124.46" y2="142.481" stroke="#E9E9E9" stroke-width="1.314"/>
<line x1="29.1587" y1="18.2855" x2="33.1183" y2="23.0043" stroke="#E9E9E9" stroke-width="1.314"/>
<line x1="125.885" y1="133.56" x2="129.845" y2="138.278" stroke="#E9E9E9" stroke-width="1.314"/>
<line x1="24.0834" y1="22.858" x2="28.4392" y2="27.2138" stroke="#E9E9E9" stroke-width="1.314"/>
<line x1="130.489" y1="129.265" x2="134.845" y2="133.621" stroke="#E9E9E9" stroke-width="1.314"/>
<line x1="19.4245" y1="27.8578" x2="24.1433" y2="31.8174" stroke="#E9E9E9" stroke-width="1.314"/>
<line x1="134.698" y1="124.583" x2="139.417" y2="128.542" stroke="#E9E9E9" stroke-width="1.314"/>
<line x1="15.2214" y1="33.2401" x2="20.2674" y2="36.7733" stroke="#E9E9E9" stroke-width="1.314"/>
<line x1="138.487" y1="119.554" x2="143.533" y2="123.088" stroke="#E9E9E9" stroke-width="1.314"/>
<line x1="8.29432" y1="45.0081" x2="13.8772" y2="47.6114" stroke="#E9E9E9" stroke-width="1.314"/>
<line x1="144.676" y1="108.604" x2="150.259" y2="111.207" stroke="#E9E9E9" stroke-width="1.314"/>
<line x1="5.62597" y1="51.3" x2="11.4145" y2="53.4068" stroke="#E9E9E9" stroke-width="1.314"/>
<line x1="147.032" y1="102.764" x2="152.821" y2="104.871" stroke="#E9E9E9" stroke-width="1.314"/>
<line x1="3.51704" y1="57.7968" x2="9.46715" y2="59.3911" stroke="#E9E9E9" stroke-width="1.314"/>
<line x1="148.869" y1="96.7453" x2="154.819" y2="98.3396" stroke="#E9E9E9" stroke-width="1.314"/>
<line x1="1.98367" y1="64.4533" x2="8.05008" y2="65.523" stroke="#E9E9E9" stroke-width="1.314"/>
<line x1="150.177" y1="90.5858" x2="156.243" y2="91.6554" stroke="#E9E9E9" stroke-width="1.314"/>
<line x1="1.03411" y1="71.2188" x2="7.17067" y2="71.7557" stroke="#E9E9E9" stroke-width="1.314"/>
<line x1="150.94" y1="84.3312" x2="157.077" y2="84.868" stroke="#E9E9E9" stroke-width="1.314"/>
<line x1="0.919591" y1="84.8707" x2="7.05615" y2="84.3338" stroke="#E9E9E9" stroke-width="1.314"/>
<line x1="150.826" y1="71.7564" x2="156.962" y2="71.2195" stroke="#E9E9E9" stroke-width="1.314"/>
<line x1="1.7555" y1="91.6551" x2="7.82191" y2="90.5854" stroke="#E9E9E9" stroke-width="1.314"/>
<line x1="149.949" y1="65.5266" x2="156.015" y2="64.4569" stroke="#E9E9E9" stroke-width="1.314"/>
<line x1="3.17696" y1="98.3345" x2="9.12706" y2="96.7402" stroke="#E9E9E9" stroke-width="1.314"/>
<line x1="148.529" y1="59.388" x2="154.479" y2="57.7936" stroke="#E9E9E9" stroke-width="1.314"/>
<line x1="5.17655" y1="104.87" x2="10.9651" y2="102.763" stroke="#E9E9E9" stroke-width="1.314"/>
<line x1="146.583" y1="53.4033" x2="152.371" y2="51.2965" stroke="#E9E9E9" stroke-width="1.314"/>
<line x1="7.739" y1="111.203" x2="13.3219" y2="108.6" stroke="#E9E9E9" stroke-width="1.314"/>
<line x1="144.121" y1="47.6058" x2="149.703" y2="45.0025" stroke="#E9E9E9" stroke-width="1.314"/>
<line x1="7.74096" y1="111.203" x2="13.3238" y2="108.6" stroke="#E9E9E9" stroke-width="1.314"/>
<line x1="144.121" y1="47.6098" x2="149.703" y2="45.0064" stroke="#E9E9E9" stroke-width="1.314"/>
<line x1="14.4677" y1="123.086" x2="19.5137" y2="119.553" stroke="#E9E9E9" stroke-width="1.314"/>
<line x1="137.733" y1="36.7737" x2="142.779" y2="33.2405" stroke="#E9E9E9" stroke-width="1.314"/>
<line x1="18.5818" y1="128.542" x2="23.3006" y2="124.582" stroke="#E9E9E9" stroke-width="1.314"/>
<line x1="133.856" y1="31.8152" x2="138.575" y2="27.8557" stroke="#E9E9E9" stroke-width="1.314"/>
<line x1="23.1523" y1="133.615" x2="27.5081" y2="129.26" stroke="#E9E9E9" stroke-width="1.314"/>
<line x1="129.56" y1="27.2098" x2="133.916" y2="22.854" stroke="#E9E9E9" stroke-width="1.314"/>
<line x1="28.1521" y1="138.272" x2="32.1117" y2="133.553" stroke="#E9E9E9" stroke-width="1.314"/>
<line x1="124.877" y1="22.9983" x2="128.836" y2="18.2795" stroke="#E9E9E9" stroke-width="1.314"/>
<line x1="33.5383" y1="142.477" x2="37.0716" y2="137.431" stroke="#E9E9E9" stroke-width="1.314"/>
<line x1="119.851" y1="19.2139" x2="123.384" y2="14.1679" stroke="#E9E9E9" stroke-width="1.314"/>
<line x1="33.5383" y1="142.481" x2="37.0716" y2="137.435" stroke="#E9E9E9" stroke-width="1.314"/>
<line x1="119.851" y1="19.2139" x2="123.384" y2="14.1679" stroke="#E9E9E9" stroke-width="1.314"/>
<line x1="45.3044" y1="149.406" x2="47.9077" y2="143.824" stroke="#E9E9E9" stroke-width="1.314"/>
<line x1="108.9" y1="13.0208" x2="111.503" y2="7.43796" stroke="#E9E9E9" stroke-width="1.314"/>
<line x1="51.5963" y1="152.073" x2="53.7031" y2="146.284" stroke="#E9E9E9" stroke-width="1.314"/>
<line x1="103.063" y1="10.6663" x2="105.169" y2="4.87784" stroke="#E9E9E9" stroke-width="1.314"/>
<line x1="58.093" y1="154.184" x2="59.6873" y2="148.234" stroke="#E9E9E9" stroke-width="1.314"/>
<line x1="97.0396" y1="8.82764" x2="98.6339" y2="2.87754" stroke="#E9E9E9" stroke-width="1.314"/>
<line x1="64.7496" y1="155.717" x2="65.8193" y2="149.651" stroke="#E9E9E9" stroke-width="1.314"/>
<line x1="90.8821" y1="7.5239" x2="91.9517" y2="1.45748" stroke="#E9E9E9" stroke-width="1.314"/>
<line x1="71.5171" y1="156.665" x2="72.0539" y2="150.528" stroke="#E9E9E9" stroke-width="1.314"/>
<line x1="84.6314" y1="6.75666" x2="85.1682" y2="0.620099" stroke="#E9E9E9" stroke-width="1.314"/>
<line x1="40.5979" y1="10.4393" x2="43.0979" y2="14.7695" stroke="black" stroke-width="1.752"/>
<line x1="116.516" y1="141.47" x2="119.016" y2="145.801" stroke="black" stroke-width="1.752"/>
<line x1="11.6098" y1="38.7861" x2="15.9399" y2="41.2861" stroke="black" stroke-width="1.752"/>
<line x1="142.641" y1="114.706" x2="146.971" y2="117.206" stroke="black" stroke-width="1.752"/>
<line x1="0.678619" y1="77.8272" x2="5.67862" y2="77.8272" stroke="black" stroke-width="1.752"/>
<line x1="152" y1="77.8271" x2="157" y2="77.8271" stroke="black" stroke-width="1.752"/>
<line x1="10.7357" y1="117.105" x2="15.0659" y2="114.605" stroke="black" stroke-width="1.752"/>
<line x1="141.767" y1="42.185" x2="146.097" y2="39.685" stroke="black" stroke-width="1.752"/>
<line x1="39.0806" y1="146.093" x2="41.5806" y2="141.763" stroke="black" stroke-width="1.752"/>
<line x1="115.003" y1="15.0619" x2="117.503" y2="10.7318" stroke="black" stroke-width="1.752"/>
<line x1="79.8735" y1="0.676651" x2="79.8735" y2="5.67665" stroke="black" stroke-width="1.752"/>
<line x1="79.8735" y1="152" x2="79.8735" y2="157" stroke="black" stroke-width="1.752"/>
</svg>
